# This file uses centimeters as units for non-parametric coordinates.

g default
v -0.577604 -0.000000 0.000000
v -0.288802 -0.000000 0.500219
v 0.288802 -0.000000 0.500220
v 0.577604 -0.000000 0.000000
v 0.288802 0.000000 -0.500219
v -0.288802 0.000000 -0.500220
v 0.340786 0.000000 -0.410180
v 0.525619 0.000000 -0.090039
v 0.525619 -0.000000 0.090040
v 0.340786 -0.000000 0.410180
v 0.184833 -0.000000 0.500219
v -0.184833 -0.000000 0.500219
v -0.340786 -0.000000 0.410180
v -0.525620 -0.000000 0.090039
v -0.525620 0.000000 -0.090039
v -0.340786 0.000000 -0.410180
v -0.184833 0.000000 -0.500219
v 0.184833 0.000000 -0.500219
v -0.577604 -0.150759 0.000000
v -0.525620 -0.150759 0.090039
v -0.340786 -0.150759 0.410180
v -0.288802 -0.150759 0.500219
v -0.184833 -0.150759 0.500219
v 0.184833 -0.150759 0.500219
v 0.288802 -0.150759 0.500220
v 0.340786 -0.150759 0.410180
v 0.525619 -0.150759 0.090040
v 0.577604 -0.150759 0.000000
v 0.525619 -0.150759 -0.090039
v 0.340786 -0.150759 -0.410180
v 0.288802 -0.150759 -0.500219
v 0.184833 -0.150759 -0.500219
v -0.184833 -0.150759 -0.500219
v -0.288802 -0.150759 -0.500220
v -0.340786 -0.150759 -0.410180
v -0.525620 -0.150759 -0.090039
v 0.184833 0.000000 -0.333479
v -0.184833 0.000000 -0.333479
v 0.184833 0.000000 -0.166740
v -0.184833 0.000000 -0.166740
v 0.184833 0.000000 0.000000
v -0.184833 0.000000 0.000000
v 0.184833 0.000000 0.166740
v -0.184833 0.000000 0.166740
v 0.184833 0.000000 0.333479
v -0.184833 0.000000 0.333479
v -0.184833 -0.150759 0.333479
v 0.184833 -0.150759 0.333479
v -0.184833 -0.150759 0.166740
v 0.184833 -0.150759 0.166740
v -0.184833 -0.150759 -0.000000
v 0.184833 -0.150759 -0.000000
v -0.184833 -0.150759 -0.166740
v 0.184833 -0.150759 -0.166740
v -0.184833 -0.150759 -0.333479
v 0.184833 -0.150759 -0.333479
vt 0.984402 0.735945
vt 0.904819 0.735945
vt 0.904819 0.688415
vt 0.984402 0.688415
vt 0.984402 0.783475
vt 0.904819 0.783475
vt 0.904819 0.519420
vt 0.984402 0.519420
vt 0.984402 0.952470
vt 0.904819 0.952470
vt 0.904819 0.471890
vt 0.984402 0.471890
vt 0.984402 1.000000
vt 0.904819 1.000000
vt 0.529827 0.977504
vt 0.450245 0.977504
vt 0.450245 0.929974
vt 0.529827 0.929974
vt 0.450245 0.760979
vt 0.529827 0.760979
vt 0.450245 0.713449
vt 0.529827 0.713449
vt 0.450245 0.665920
vt 0.529827 0.665920
vt 0.450245 0.496924
vt 0.529827 0.496924
vt 0.450245 0.449395
vt 0.529827 0.449395
vt 0.000001 0.374544
vt 0.000001 0.192947
vt 0.081911 0.192947
vt 0.081911 0.374544
vt 0.000000 0.141873
vt 0.044232 0.116336
vt 0.163821 0.192947
vt 0.163821 0.374544
vt 0.000001 0.425618
vt 0.044232 0.451155
vt 0.201499 0.025537
vt 0.245731 0.192947
vt 0.245731 0.374544
vt 0.201500 0.541954
vt 0.245731 0.000000
vt 0.327641 0.192947
vt 0.327641 0.374544
vt 0.245731 0.567491
vt 0.289962 0.025537
vt 0.409551 0.192947
vt 0.409551 0.374544
vt 0.289962 0.541954
vt 0.447230 0.116336
vt 0.491461 0.192947
vt 0.491461 0.374544
vt 0.447230 0.451155
vt 0.491461 0.141873
vt 0.491462 0.425618
vt 0.984999 0.192947
vt 0.984999 0.374544
vt 0.903089 0.374544
vt 0.903089 0.192947
vt 0.984999 0.425618
vt 0.940768 0.451155
vt 0.821179 0.374544
vt 0.821179 0.192947
vt 0.940768 0.116336
vt 0.984999 0.141873
vt 0.783500 0.541954
vt 0.739269 0.374544
vt 0.739269 0.192947
vt 0.783500 0.025537
vt 0.739269 0.567491
vt 0.657358 0.374544
vt 0.657358 0.192947
vt 0.739269 0.000000
vt 0.695037 0.541954
vt 0.575448 0.374544
vt 0.575448 0.192947
vt 0.695037 0.025537
vt 0.537769 0.451155
vt 0.493538 0.374544
vt 0.493538 0.192947
vt 0.537769 0.116336
vt 0.493538 0.425618
vt 0.493538 0.141873
vt 0.606561 0.776870
vt 0.532501 0.776870
vt 0.532501 0.725795
vt 0.606561 0.725795
vt 0.532501 0.544199
vt 0.606561 0.544199
vt 0.532501 0.493124
vt 0.606561 0.493124
vt 0.000000 0.470629
vt 0.074060 0.470629
vt 0.074060 0.521703
vt 0.000000 0.521703
vt 0.074060 0.703300
vt 0.000000 0.703300
vt 0.074060 0.754374
vt 0.000000 0.754374
vn -0.866026 0.000000 0.500000
vn -0.866026 0.000000 0.500000
vn -0.866026 0.000000 0.500000
vn -0.866026 0.000000 0.500000
vn -0.866025 0.000000 0.500001
vn -0.866025 0.000000 0.500001
vn -0.866025 0.000000 0.500001
vn -0.866025 0.000000 0.500001
vn -0.866025 0.000000 0.500000
vn -0.866025 0.000000 0.500000
vn -0.866025 0.000000 0.500000
vn -0.866025 0.000000 0.500000
vn 0.000000 0.000000 1.000000
vn 0.000000 0.000000 1.000000
vn 0.000000 0.000000 1.000000
vn 0.000000 0.000000 1.000000
vn 0.000000 0.000000 1.000000
vn 0.000000 0.000000 1.000000
vn 0.000000 0.000000 1.000000
vn 0.000000 0.000000 1.000000
vn -0.000010 0.000000 1.000000
vn -0.000010 0.000000 1.000000
vn -0.000010 0.000000 1.000000
vn -0.000010 0.000000 1.000000
vn 0.866028 0.000000 0.499996
vn 0.866028 0.000000 0.499996
vn 0.866028 0.000000 0.499996
vn 0.866028 0.000000 0.499996
vn 0.866025 0.000000 0.500000
vn 0.866025 0.000000 0.500000
vn 0.866025 0.000000 0.500000
vn 0.866025 0.000000 0.500000
vn 0.866024 0.000000 0.500003
vn 0.866024 0.000000 0.500003
vn 0.866024 0.000000 0.500003
vn 0.866024 0.000000 0.500003
vn 0.866021 0.000000 -0.500007
vn 0.866021 0.000000 -0.500007
vn 0.866021 0.000000 -0.500007
vn 0.866021 0.000000 -0.500007
vn 0.866026 0.000000 -0.499999
vn 0.866026 0.000000 -0.499999
vn 0.866026 0.000000 -0.499999
vn 0.866026 0.000000 -0.499999
vn 0.866026 0.000000 -0.500000
vn 0.866026 0.000000 -0.500000
vn 0.866026 0.000000 -0.500000
vn 0.866026 0.000000 -0.500000
vn 0.000000 0.000000 -1.000000
vn 0.000000 0.000000 -1.000000
vn 0.000000 0.000000 -1.000000
vn 0.000000 0.000000 -1.000000
vn 0.000000 0.000000 -1.000000
vn 0.000000 0.000000 -1.000000
vn 0.000000 0.000000 -1.000000
vn 0.000000 0.000000 -1.000000
vn 0.000010 0.000000 -1.000000
vn 0.000010 0.000000 -1.000000
vn 0.000010 0.000000 -1.000000
vn 0.000010 0.000000 -1.000000
vn -0.866028 0.000000 -0.499996
vn -0.866028 0.000000 -0.499996
vn -0.866028 0.000000 -0.499996
vn -0.866028 0.000000 -0.499996
vn -0.866025 0.000000 -0.500001
vn -0.866025 0.000000 -0.500001
vn -0.866025 0.000000 -0.500001
vn -0.866025 0.000000 -0.500001
vn -0.866026 0.000000 -0.500000
vn -0.866026 0.000000 -0.500000
vn -0.866026 0.000000 -0.500000
vn -0.866026 0.000000 -0.500000
vn 0.000000 1.000000 0.000000
vn 0.000000 1.000000 0.000000
vn 0.000000 1.000000 0.000000
vn 0.000000 1.000000 0.000000
vn 0.000000 1.000000 0.000000
vn 0.000000 1.000000 0.000000
vn 0.000000 1.000000 0.000000
vn 0.000000 1.000000 0.000000
vn 0.000000 1.000000 0.000000
vn 0.000000 1.000000 0.000000
vn 0.000000 1.000000 0.000000
vn 0.000000 1.000000 0.000000
vn 0.000000 1.000000 0.000000
vn 0.000000 1.000000 0.000000
vn 0.000000 1.000000 0.000000
vn 0.000000 1.000000 0.000000
vn 0.000000 1.000000 0.000000
vn 0.000000 1.000000 0.000000
vn 0.000000 1.000000 0.000000
vn 0.000000 1.000000 0.000000
vn 0.000000 1.000000 0.000000
vn 0.000000 1.000000 0.000000
vn 0.000000 1.000000 0.000000
vn 0.000000 1.000000 0.000000
vn 0.000000 1.000000 0.000000
vn 0.000000 1.000000 0.000000
vn 0.000000 1.000000 0.000000
vn 0.000000 1.000000 0.000000
vn 0.000000 1.000000 0.000000
vn 0.000000 1.000000 0.000000
vn 0.000000 1.000000 0.000000
vn 0.000000 1.000000 0.000000
vn 0.000000 1.000000 0.000000
vn 0.000000 1.000000 0.000000
vn -0.000000 1.000000 0.000000
vn -0.000000 1.000000 0.000000
vn -0.000000 1.000000 0.000000
vn -0.000000 1.000000 0.000000
vn -0.000000 1.000000 0.000000
vn -0.000000 1.000000 0.000000
vn -0.000000 1.000000 0.000000
vn -0.000000 1.000000 0.000000
vn -0.000000 1.000000 0.000000
vn -0.000000 1.000000 0.000000
vn -0.000000 1.000000 0.000000
vn -0.000000 1.000000 0.000000
vn 0.000000 1.000000 0.000000
vn 0.000000 1.000000 0.000000
vn 0.000000 1.000000 0.000000
vn 0.000000 1.000000 0.000000
vn -0.000000 1.000000 0.000000
vn -0.000000 1.000000 0.000000
vn -0.000000 1.000000 0.000000
vn -0.000000 1.000000 0.000000
vn 0.000000 1.000000 0.000000
vn 0.000000 1.000000 0.000000
vn 0.000000 1.000000 0.000000
vn 0.000000 1.000000 0.000000
vn 0.000000 1.000000 0.000000
vn 0.000000 1.000000 0.000000
vn 0.000000 1.000000 0.000000
vn 0.000000 1.000000 0.000000
vn 0.000000 -1.000000 0.000000
vn 0.000000 -1.000000 0.000000
vn 0.000000 -1.000000 -0.000000
vn 0.000000 -1.000000 -0.000000
vn 0.000000 -1.000000 -0.000000
vn 0.000000 -1.000000 -0.000000
vn 0.000000 -1.000000 0.000000
vn 0.000000 -1.000000 0.000000
vn 0.000000 -1.000000 0.000000
vn 0.000000 -1.000000 0.000000
vn 0.000000 -1.000000 -0.000000
vn 0.000000 -1.000000 -0.000000
vn 0.000000 -1.000000 -0.000000
vn 0.000000 -1.000000 -0.000000
vn 0.000000 -1.000000 0.000000
vn 0.000000 -1.000000 0.000000
vn 0.000000 -1.000000 0.000000
vn 0.000000 -1.000000 0.000000
vn 0.000000 -1.000000 -0.000000
vn 0.000000 -1.000000 -0.000000
vn 0.000000 -1.000000 -0.000000
vn 0.000000 -1.000000 -0.000000
vn 0.000000 -1.000000 0.000000
vn 0.000000 -1.000000 0.000000
vn 0.000000 -1.000000 0.000000
vn 0.000000 -1.000000 0.000000
vn 0.000000 -1.000000 0.000000
vn 0.000000 -1.000000 0.000000
vn 0.000000 -1.000000 0.000000
vn 0.000000 -1.000000 0.000000
vn 0.000000 -1.000000 -0.000000
vn 0.000000 -1.000000 -0.000000
vn 0.000000 -1.000000 -0.000000
vn 0.000000 -1.000000 -0.000000
vn 0.000000 -1.000000 0.000000
vn 0.000000 -1.000000 0.000000
vn 0.000000 -1.000000 0.000000
vn 0.000000 -1.000000 0.000000
vn 0.000000 -1.000000 -0.000000
vn 0.000000 -1.000000 -0.000000
vn 0.000000 -1.000000 -0.000000
vn 0.000000 -1.000000 -0.000000
vn 0.000000 -1.000000 0.000000
vn 0.000000 -1.000000 0.000000
vn 0.000000 -1.000000 0.000000
vn 0.000000 -1.000000 0.000000
vn 0.000000 -1.000000 0.000000
vn 0.000000 -1.000000 0.000000
vn 0.000000 -1.000000 0.000000
vn 0.000000 -1.000000 0.000000
vn 0.000000 -1.000000 0.000000
vn 0.000000 -1.000000 0.000000
vn 0.000000 -1.000000 0.000000
vn 0.000000 -1.000000 0.000000
vn 0.000000 -1.000000 0.000000
vn 0.000000 -1.000000 0.000000
vn 0.000000 -1.000000 0.000000
vn 0.000000 -1.000000 0.000000
vn 0.000000 -1.000000 0.000000
vn 0.000000 -1.000000 0.000000
vn 0.000000 -1.000000 0.000000
vn 0.000000 -1.000000 0.000000
s off
g hexMiddle
f 1/1/1 19/2/2 20/3/3 14/4/4
f 14/4/5 20/3/6 21/7/7 13/8/8
f 13/8/9 21/7/10 22/11/11 2/12/12
f 2/85/13 22/86/14 23/87/15 12/88/16
f 12/88/17 23/87/18 24/89/19 11/90/20
f 11/90/21 24/89/22 25/91/23 3/92/24
f 3/15/25 25/16/26 26/17/27 10/18/28
f 10/18/29 26/17/30 27/19/31 9/20/32
f 9/20/33 27/19/34 28/21/35 4/22/36
f 4/22/37 28/21/38 29/23/39 8/24/40
f 8/24/41 29/23/42 30/25/43 7/26/44
f 7/26/45 30/25/46 31/27/47 5/28/48
f 5/93/49 31/94/50 32/95/51 18/96/52
f 18/96/53 32/95/54 33/97/55 17/98/56
f 17/98/57 33/97/58 34/99/59 6/100/60
f 6/13/61 34/14/62 35/10/63 16/9/64
f 16/9/65 35/10/66 36/6/67 15/5/68
f 15/5/69 36/6/70 19/2/71 1/1/72
s 1
f 12/29/73 11/30/74 45/31/75 46/32/76
f 38/49/77 37/48/78 18/52/79 17/53/80
f 40/45/81 39/44/82 37/48/78 38/49/77
f 42/41/83 41/40/84 39/44/82 40/45/81
f 44/36/85 43/35/86 41/40/84 42/41/83
f 46/32/76 45/31/75 43/35/86 44/36/85
s off
f 10/34/87 9/39/88 43/35/89 45/31/90
f 9/39/91 4/43/92 41/40/93 43/35/94
f 4/43/95 8/47/96 39/44/97 41/40/98
f 8/47/99 7/51/100 37/48/101 39/44/102
f 16/54/103 15/50/104 40/45/105 38/49/106
f 15/50/107 1/46/108 42/41/109 40/45/110
f 1/46/111 14/42/112 44/36/113 42/41/114
f 14/42/115 13/38/116 46/32/117 44/36/118
f 11/30/119 3/33/120 10/34/121 45/31/122
f 2/37/123 12/29/124 46/32/125 13/38/126
f 7/51/127 5/55/128 18/52/129 37/48/130
f 6/56/131 16/54/132 38/49/133 17/53/134
s 3
f 24/57/135 23/58/136 47/59/137 48/60/138
f 48/60/138 47/59/137 49/63/139 50/64/140
f 50/64/140 49/63/139 51/68/141 52/69/142
f 52/69/142 51/68/141 53/72/143 54/73/144
f 54/73/144 53/72/143 55/76/145 56/77/146
f 56/77/146 55/76/145 33/80/147 32/81/148
s off
f 30/82/149 29/78/150 54/73/151 56/77/152
f 29/78/153 28/74/154 52/69/155 54/73/156
f 28/74/157 27/70/158 50/64/159 52/69/160
f 27/70/161 26/65/162 48/60/163 50/64/164
f 21/62/165 20/67/166 49/63/167 47/59/168
f 20/67/169 19/71/170 51/68/171 49/63/172
f 19/71/173 36/75/174 53/72/175 51/68/176
f 36/75/177 35/79/178 55/76/179 53/72/180
f 26/65/181 25/66/182 24/57/183 48/60/184
f 22/61/185 21/62/186 47/59/187 23/58/188
f 30/82/189 56/77/190 32/81/191 31/84/192
f 55/76/193 35/79/194 34/83/195 33/80/196
