# This file uses centimeters as units for non-parametric coordinates.

g default
v -0.348712 0.000000 0.348717
v 0.000000 0.000000 0.500000
v 0.348712 0.000000 0.348717
v -0.500000 0.000000 0.000000
v 0.000000 0.000000 0.000000
v 0.500000 0.000000 0.000000
v -0.348712 0.000000 -0.348717
v 0.000000 0.000000 -0.500000
v 0.348712 0.000000 -0.348717
v -0.385001 0.119219 0.385006
v 0.000000 0.119219 0.552033
v -0.552033 0.119219 0.000000
v 0.385001 0.119219 0.385006
v 0.552033 0.119219 0.000000
v -0.385001 0.119219 -0.385006
v 0.385001 0.119219 -0.385006
v 0.000000 0.119219 -0.552033
v -0.456112 0.390945 0.456118
v 0.000000 0.390945 0.653995
v -0.653995 0.390945 0.000000
v 0.456112 0.390945 0.456118
v 0.653995 0.390945 0.000000
v -0.456112 0.390945 -0.456118
v 0.456112 0.390945 -0.456118
v 0.000000 0.390945 -0.653995
v -0.442804 0.662409 0.442810
v 0.000000 0.662409 0.634913
v -0.634913 0.662409 0.000000
v 0.442804 0.662409 0.442810
v 0.634913 0.662409 0.000000
v -0.442804 0.662409 -0.442810
v 0.442804 0.662409 -0.442810
v 0.000000 0.662409 -0.634913
v -0.316146 0.978056 0.316150
v 0.000000 0.978056 0.453304
v -0.453304 0.978056 0.000000
v 0.316146 0.978056 0.316150
v 0.453304 0.978056 0.000000
v -0.316146 0.978056 -0.316150
v 0.316146 0.978056 -0.316150
v 0.000000 0.978056 -0.453304
v -0.181940 1.101592 0.181940
v 0.000000 1.101592 0.260875
v -0.260875 1.101592 0.000000
v 0.181940 1.101592 0.181940
v 0.260875 1.101592 0.000000
v -0.181940 1.101592 -0.181940
v 0.181940 1.101592 -0.181940
v 0.000000 1.101592 -0.260875
v -0.163941 1.163275 0.163941
v 0.000000 1.163275 0.235067
v -0.235067 1.163275 0.000000
v 0.163941 1.163275 0.163941
v 0.235067 1.163275 0.000000
v -0.163941 1.163275 -0.163941
v 0.163941 1.163275 -0.163941
v 0.000000 1.163275 -0.235067
v -0.188604 1.290464 0.188604
v 0.000000 1.290464 0.270431
v -0.270431 1.290464 0.000000
v 0.188604 1.290464 0.188604
v 0.270431 1.290464 0.000000
v -0.188604 1.290464 -0.188604
v 0.188604 1.290464 -0.188604
v 0.000000 1.290464 -0.270431
v -0.188604 1.360180 0.188604
v 0.000000 1.360180 0.270431
v -0.270431 1.360180 0.000000
v 0.188604 1.360180 0.188604
v 0.270431 1.360180 0.000000
v -0.188604 1.360180 -0.188604
v 0.188604 1.360180 -0.188604
v 0.000000 1.360180 -0.270431
v -0.165561 1.360180 0.165561
v 0.000000 1.360180 0.237390
v -0.237390 1.360180 0.000000
v 0.165561 1.360180 0.165561
v 0.237390 1.360180 0.000000
v -0.165561 1.360180 -0.165561
v 0.165561 1.360180 -0.165561
v 0.000000 1.360180 -0.237390
v -0.142657 1.187400 0.142657
v 0.000000 1.187400 0.204550
v -0.204550 1.187400 0.000000
v 0.142657 1.187400 0.142657
v 0.204550 1.187400 0.000000
v -0.142657 1.187400 -0.142657
v 0.142657 1.187400 -0.142657
v 0.000000 1.187400 -0.204550
v -0.165597 1.074257 0.165597
v 0.000000 1.074257 0.237443
v -0.237443 1.074257 0.000000
v 0.165597 1.074257 0.165597
v 0.237443 1.074257 0.000000
v -0.165597 1.074257 -0.165597
v 0.165597 1.074257 -0.165597
v 0.000000 1.074257 -0.237443
v -0.225639 0.215549 0.225639
v 0.000000 0.215549 0.323534
v -0.323534 0.215549 0.000000
v 0.225639 0.215549 0.225639
v 0.323534 0.215549 0.000000
v -0.225639 0.215549 -0.225639
v 0.225639 0.215549 -0.225639
v 0.000000 0.215549 -0.323534
v -0.086410 0.215549 0.086410
v 0.000000 0.215549 0.123899
v -0.123899 0.215549 0.000000
v 0.086410 0.215549 0.086410
v 0.123899 0.215549 0.000000
v -0.086410 0.215549 -0.086410
v 0.086410 0.215549 -0.086410
v 0.000000 0.215549 -0.123899
v -0.407389 0.799854 0.407395
v -0.584134 0.799854 0.000000
v -0.407389 0.799854 -0.407395
v 0.000000 0.799854 -0.584134
v 0.407389 0.799854 -0.407395
v 0.584134 0.799854 0.000000
v 0.407389 0.799854 0.407395
v 0.000000 0.799854 0.584134
v -0.433388 0.257467 0.433394
v -0.621412 0.257467 0.000000
v -0.433388 0.257467 -0.433394
v 0.000000 0.257467 -0.621412
v 0.433388 0.257467 -0.433394
v 0.621412 0.257467 0.000000
v 0.433388 0.257467 0.433394
v 0.000000 0.257467 0.621412
vt 0.623813 0.014732
vt 0.722678 0.014732
vt 0.732966 0.048532
vt 0.623813 0.048532
vt 0.746685 0.087727
vt 0.623813 0.087727
vt 0.524947 0.014732
vt 0.514659 0.048532
vt 0.753127 0.125570
vt 0.623813 0.125570
vt 0.500940 0.087727
vt 0.749354 0.202533
vt 0.623813 0.202533
vt 0.494498 0.125570
vt 0.739314 0.241500
vt 0.623813 0.241500
vt 0.498271 0.202533
vt 0.713445 0.292023
vt 0.623813 0.292023
vt 0.508311 0.241500
vt 0.675395 0.327047
vt 0.623813 0.327047
vt 0.534180 0.292023
vt 0.670292 0.344535
vt 0.623813 0.344535
vt 0.572230 0.327047
vt 0.677284 0.380594
vt 0.623813 0.380594
vt 0.577333 0.344535
vt 0.677284 0.400360
vt 0.623813 0.400360
vt 0.570341 0.380594
vt 0.570341 0.400360
vt 0.512644 0.409707
vt 0.611510 0.409707
vt 0.611510 0.443507
vt 0.502355 0.443507
vt 0.710375 0.409707
vt 0.720663 0.443507
vt 0.611510 0.482702
vt 0.488637 0.482702
vt 0.734382 0.482702
vt 0.611510 0.520545
vt 0.482194 0.520545
vt 0.740824 0.520545
vt 0.611510 0.597508
vt 0.485968 0.597508
vt 0.737051 0.597508
vt 0.611510 0.636475
vt 0.496008 0.636475
vt 0.727011 0.636475
vt 0.611510 0.686997
vt 0.521877 0.686997
vt 0.701142 0.686997
vt 0.611510 0.722021
vt 0.559927 0.722021
vt 0.663091 0.722021
vt 0.611510 0.739509
vt 0.565030 0.739509
vt 0.657989 0.739509
vt 0.611510 0.775569
vt 0.558038 0.775569
vt 0.664981 0.775569
vt 0.611510 0.795334
vt 0.558038 0.795334
vt 0.664981 0.795334
vt 0.810595 0.737979
vt 0.763656 0.737979
vt 0.770150 0.688994
vt 0.810595 0.688994
vt 0.763646 0.656917
vt 0.810595 0.656917
vt 0.857533 0.737979
vt 0.851040 0.688994
vt 0.746624 0.413463
vt 0.810595 0.413463
vt 0.857544 0.656917
vt 0.874566 0.413463
vt 0.451771 0.370751
vt 0.404832 0.370751
vt 0.404832 0.321766
vt 0.445277 0.321766
vt 0.357894 0.370751
vt 0.364387 0.321766
vt 0.404832 0.289688
vt 0.451781 0.289688
vt 0.357884 0.289688
vt 0.404832 0.046234
vt 0.468804 0.046234
vt 0.340861 0.046234
vt 0.291995 0.952763
vt 0.249104 0.853898
vt 0.390860 0.853898
vt 0.390860 0.995654
vt 0.291995 0.755032
vt 0.390860 0.712142
vt 0.532615 0.853898
vt 0.489724 0.952763
vt 0.489724 0.755032
vt 0.709083 0.769392
vt 0.762555 0.746194
vt 0.762555 0.755561
vt 0.715616 0.775926
vt 0.816026 0.769392
vt 0.809493 0.775926
vt 0.685884 0.822864
vt 0.695252 0.822864
vt 0.839225 0.822864
vt 0.829857 0.822864
vt 0.709083 0.876336
vt 0.715616 0.869803
vt 0.816026 0.876336
vt 0.809493 0.869803
vt 0.762555 0.899535
vt 0.762555 0.890167
vt 0.550577 0.834559
vt 0.614548 0.806805
vt 0.614548 0.863404
vt 0.590050 0.874032
vt 0.678519 0.834559
vt 0.639046 0.874032
vt 0.639046 0.923029
vt 0.614548 0.933657
vt 0.522823 0.898531
vt 0.579422 0.898531
vt 0.706274 0.898531
vt 0.649675 0.898531
vt 0.678519 0.962502
vt 0.614548 0.990256
vt 0.590050 0.923029
vt 0.550577 0.962502
vt 0.106372 0.414603
vt 0.205236 0.414603
vt 0.205236 0.448403
vt 0.096083 0.448403
vt 0.304100 0.414603
vt 0.314388 0.448403
vt 0.205236 0.487598
vt 0.082365 0.487598
vt 0.328107 0.487598
vt 0.205236 0.525441
vt 0.075923 0.525441
vt 0.334549 0.525441
vt 0.205236 0.602404
vt 0.079696 0.602404
vt 0.330776 0.602404
vt 0.205236 0.641371
vt 0.089736 0.641371
vt 0.320736 0.641371
vt 0.205236 0.691894
vt 0.115605 0.691894
vt 0.294867 0.691894
vt 0.205236 0.726918
vt 0.153654 0.726918
vt 0.256818 0.726918
vt 0.205236 0.744406
vt 0.158757 0.744406
vt 0.251715 0.744406
vt 0.205236 0.780465
vt 0.151764 0.780465
vt 0.258708 0.780465
vt 0.205236 0.800231
vt 0.151764 0.800231
vt 0.258708 0.800231
vt 0.194438 0.021261
vt 0.293302 0.021261
vt 0.303590 0.055061
vt 0.194438 0.055061
vt 0.317308 0.094256
vt 0.194437 0.094256
vt 0.095573 0.021261
vt 0.085285 0.055061
vt 0.323751 0.132099
vt 0.194437 0.132099
vt 0.071567 0.094256
vt 0.319978 0.209062
vt 0.194438 0.209062
vt 0.065124 0.132099
vt 0.309937 0.248029
vt 0.194438 0.248029
vt 0.068897 0.209062
vt 0.284069 0.298551
vt 0.194438 0.298551
vt 0.078938 0.248029
vt 0.246020 0.333575
vt 0.194438 0.333575
vt 0.104806 0.298551
vt 0.240916 0.351063
vt 0.194437 0.351063
vt 0.142855 0.333575
vt 0.247909 0.387123
vt 0.194437 0.387123
vt 0.147958 0.351063
vt 0.247909 0.406888
vt 0.194438 0.406888
vt 0.140966 0.387123
vt 0.140966 0.406888
vt 0.445601 0.710233
vt 0.398662 0.710233
vt 0.398662 0.661248
vt 0.439107 0.661248
vt 0.351724 0.710233
vt 0.358217 0.661248
vt 0.398662 0.629170
vt 0.445611 0.629171
vt 0.351713 0.629170
vt 0.398662 0.385716
vt 0.462634 0.385716
vt 0.334691 0.385716
vt 0.818397 0.385440
vt 0.771459 0.385440
vt 0.777952 0.336455
vt 0.818397 0.336455
vt 0.771448 0.304377
vt 0.818397 0.304377
vt 0.865336 0.385440
vt 0.858842 0.336455
vt 0.754426 0.060923
vt 0.818397 0.060923
vt 0.865346 0.304377
vt 0.882369 0.060923
vn 0.000000 -1.000000 0.000000
vn 0.000000 -1.000000 0.000000
vn 0.000000 -1.000000 0.000000
vn 0.000000 -1.000000 0.000000
vn 0.000000 -1.000000 0.000000
vn 0.000000 -1.000000 0.000000
vn 0.000000 -1.000000 0.000000
vn 0.000000 -1.000000 0.000000
vn 0.000000 -1.000000 0.000000
vn -0.649486 -0.395395 0.649485
vn 0.000000 -0.400008 0.916512
vn 0.000000 -0.430336 0.902669
vn -0.639968 -0.425303 0.639968
vn -0.916512 -0.400008 0.000000
vn -0.902669 -0.430336 0.000000
vn 0.649486 -0.395394 0.649485
vn 0.639968 -0.425302 0.639968
vn 0.916512 -0.400008 0.000000
vn 0.902669 -0.430336 -0.000000
vn -0.649486 -0.395395 -0.649485
vn -0.639968 -0.425303 -0.639968
vn 0.649486 -0.395394 -0.649485
vn 0.639968 -0.425302 -0.639968
vn 0.000000 -0.400008 -0.916512
vn 0.000000 -0.430336 -0.902669
vn 0.000000 -0.337344 0.941381
vn -0.666473 -0.334105 0.666474
vn -0.941382 -0.337344 0.000000
vn 0.666473 -0.334105 0.666474
vn 0.941382 -0.337344 -0.000000
vn -0.666473 -0.334105 -0.666474
vn 0.666473 -0.334105 -0.666474
vn 0.000000 -0.337344 -0.941381
vn -0.706800 -0.029436 0.706801
vn 0.000000 -0.029566 0.999563
vn 0.000000 0.158098 0.987423
vn -0.698383 0.156593 0.698383
vn -0.999563 -0.029566 -0.000000
vn -0.987423 0.158098 -0.000000
vn 0.706800 -0.029436 0.706800
vn 0.698383 0.156593 0.698383
vn 0.999563 -0.029566 0.000000
vn 0.987423 0.158098 0.000000
vn -0.706800 -0.029436 -0.706800
vn -0.698383 0.156593 -0.698383
vn 0.706800 -0.029436 -0.706801
vn 0.698383 0.156593 -0.698383
vn -0.000000 -0.029566 -0.999563
vn -0.000000 0.158098 -0.987423
vn 0.000000 0.473882 0.880589
vn -0.624056 0.470222 0.624056
vn -0.880589 0.473881 0.000000
vn 0.624056 0.470222 0.624056
vn 0.880589 0.473881 -0.000000
vn -0.624056 0.470222 -0.624056
vn 0.624056 0.470222 -0.624056
vn -0.000000 0.473882 -0.880589
vn -0.518236 0.680340 0.518237
vn -0.000000 0.683307 0.730131
vn 0.000000 0.798161 0.602444
vn -0.430677 0.793118 0.430675
vn -0.730133 0.683306 0.000000
vn -0.602445 0.798160 -0.000000
vn 0.518236 0.680340 0.518237
vn 0.430677 0.793118 0.430675
vn 0.730133 0.683306 -0.000000
vn 0.602445 0.798160 0.000000
vn -0.518236 0.680340 -0.518237
vn -0.430677 0.793118 -0.430675
vn 0.518236 0.680340 -0.518237
vn 0.430677 0.793118 -0.430675
vn 0.000000 0.683307 -0.730131
vn -0.000000 0.798161 -0.602444
vn 0.000000 -0.049190 0.998789
vn -0.706262 -0.048858 0.706262
vn -0.998789 -0.049190 -0.000000
vn 0.706262 -0.048858 0.706262
vn 0.998789 -0.049190 0.000000
vn -0.706262 -0.048858 -0.706262
vn 0.706262 -0.048858 -0.706262
vn -0.000000 -0.049190 -0.998789
vn -0.000000 -0.168224 0.985749
vn -0.697250 -0.166388 0.697250
vn -0.985749 -0.168224 0.000000
vn 0.697250 -0.166388 0.697250
vn 0.985749 -0.168224 -0.000000
vn -0.697250 -0.166388 -0.697250
vn 0.697250 -0.166388 -0.697250
vn 0.000000 -0.168224 -0.985749
vn 0.000000 0.312542 0.949904
vn -0.670722 0.316644 0.670722
vn -0.949904 0.312542 -0.000000
vn 0.670722 0.316644 0.670722
vn 0.949904 0.312542 0.000000
vn -0.670722 0.316644 -0.670722
vn 0.670722 0.316644 -0.670722
vn 0.000000 0.312542 -0.949904
vn 0.000000 0.433350 -0.901226
vn 0.640395 0.424014 -0.640395
vn 0.901226 0.433350 -0.000000
vn -0.640395 0.424014 -0.640395
vn -0.901226 0.433350 0.000000
vn 0.640395 0.424014 0.640395
vn -0.640395 0.424014 0.640395
vn -0.000000 0.433350 0.901226
vn 0.000000 -0.002756 -0.999996
vn 0.707105 -0.002505 -0.707105
vn 0.999996 -0.002756 0.000000
vn -0.707105 -0.002505 -0.707105
vn -0.999996 -0.002756 0.000000
vn 0.707105 -0.002505 0.707105
vn -0.707105 -0.002505 0.707105
vn -0.000000 -0.002756 0.999996
vn 0.000000 -0.115848 -0.993267
vn 0.702463 -0.114413 -0.702463
vn 0.993267 -0.115848 -0.000000
vn -0.702463 -0.114413 -0.702463
vn -0.993267 -0.115848 0.000000
vn 0.702463 -0.114413 0.702463
vn -0.702463 -0.114413 0.702463
vn -0.000000 -0.115848 0.993267
vn 0.000000 0.040372 -0.999185
vn 0.706439 0.043456 -0.706439
vn 0.999185 0.040372 -0.000000
vn -0.706439 0.043456 -0.706439
vn -0.999185 0.040372 0.000000
vn 0.706439 0.043456 0.706439
vn -0.706439 0.043456 0.706439
vn 0.000000 0.040372 0.999185
vn 0.000000 1.000000 0.000000
vn 0.000000 1.000000 0.000000
vn 0.000000 1.000000 -0.000000
vn 0.000000 1.000000 0.000000
vn 0.000000 1.000000 0.000000
vn 0.000000 1.000000 -0.000000
vn 0.000000 1.000000 0.000000
vn 0.000000 1.000000 0.000000
s 1
g pot1
f 1/91/1 4/92/2 5/93/3 2/94/4
f 2/94/4 5/93/3 6/97/5 3/98/6
f 4/92/2 7/95/7 8/96/8 5/93/3
f 5/93/3 8/96/8 9/99/9 6/97/5
s 2
f 1/132/10 2/133/11 11/134/12 10/135/13
f 4/1/14 1/2/10 10/3/13 12/4/15
f 2/133/11 3/136/16 13/137/17 11/134/12
f 3/34/16 6/35/18 14/36/19 13/37/17
f 7/7/20 4/1/14 12/4/15 15/8/21
f 6/35/18 9/38/22 16/39/23 14/36/19
f 8/165/24 7/166/20 15/167/21 17/168/25
f 9/171/22 8/165/24 17/168/25 16/172/23
f 10/135/13 11/134/12 129/138/26 122/139/27
f 12/4/15 10/3/13 122/5/27 123/6/28
f 11/134/12 13/137/17 128/140/29 129/138/26
f 13/37/17 14/36/19 127/40/30 128/41/29
f 15/8/21 12/4/15 123/6/28 124/11/31
f 14/36/19 16/39/23 126/42/32 127/40/30
f 17/168/25 15/167/21 124/169/31 125/170/33
f 16/172/23 17/168/25 125/170/33 126/175/32
f 18/142/34 19/141/35 27/144/36 26/145/37
f 20/10/38 18/9/34 26/12/37 28/13/39
f 19/141/35 21/143/40 29/146/41 27/144/36
f 21/44/40 22/43/42 30/46/43 29/47/41
f 23/14/44 20/10/38 28/13/39 31/17/45
f 22/43/42 24/45/46 32/48/47 30/46/43
f 25/174/48 23/173/44 31/176/45 33/177/49
f 24/178/46 25/174/48 33/177/49 32/181/47
f 26/145/37 27/144/36 121/147/50 114/148/51
f 28/13/39 26/12/37 114/15/51 115/16/52
f 27/144/36 29/146/41 120/149/53 121/147/50
f 29/47/41 30/46/43 119/49/54 120/50/53
f 31/17/45 28/13/39 115/16/52 116/20/55
f 30/46/43 32/48/47 118/51/56 119/49/54
f 33/177/49 31/176/45 116/179/55 117/180/57
f 32/181/47 33/177/49 117/180/57 118/184/56
f 34/151/58 35/150/59 43/153/60 42/154/61
f 36/19/62 34/18/58 42/21/61 44/22/63
f 35/150/59 37/152/64 45/155/65 43/153/60
f 37/53/64 38/52/66 46/55/67 45/56/65
f 39/23/68 36/19/62 44/22/63 47/26/69
f 38/52/66 40/54/70 48/57/71 46/55/67
f 41/183/72 39/182/68 47/185/69 49/186/73
f 40/187/70 41/183/72 49/186/73 48/190/71
f 42/154/61 43/153/60 51/156/74 50/157/75
f 44/22/63 42/21/61 50/24/75 52/25/76
f 43/153/60 45/155/65 53/158/77 51/156/74
f 45/56/65 46/55/67 54/58/78 53/59/77
f 47/26/69 44/22/63 52/25/76 55/29/79
f 46/55/67 48/57/71 56/60/80 54/58/78
f 49/186/73 47/185/69 55/188/79 57/189/81
f 48/190/71 49/186/73 57/189/81 56/193/80
f 50/157/75 51/156/74 59/159/82 58/160/83
f 52/25/76 50/24/75 58/27/83 60/28/84
f 51/156/74 53/158/77 61/161/85 59/159/82
f 53/59/77 54/58/78 62/61/86 61/62/85
f 55/29/79 52/25/76 60/28/84 63/32/87
f 54/58/78 56/60/80 64/63/88 62/61/86
f 57/189/81 55/188/79 63/191/87 65/192/89
f 56/193/80 57/189/81 65/192/89 64/196/88
f 58/160/83 59/159/82 67/162/90 66/163/91
f 60/28/84 58/27/83 66/30/91 68/31/92
f 59/159/82 61/161/85 69/164/93 67/162/90
f 61/62/85 62/61/86 70/64/94 69/65/93
f 63/32/87 60/28/84 68/31/92 71/33/95
f 62/61/86 64/63/88 72/66/96 70/64/94
f 65/192/89 63/191/87 71/194/95 73/195/97
f 64/196/88 65/192/89 73/195/97 72/197/96
f 66/100/91 67/101/90 75/102/98 74/103/99
f 68/106/92 66/100/91 74/103/99 76/107/100
f 67/101/90 69/104/93 77/105/101 75/102/98
f 69/104/93 70/108/94 78/109/102 77/105/101
f 71/110/95 68/106/92 76/107/100 79/111/103
f 70/108/94 72/112/96 80/113/104 78/109/102
f 73/114/97 71/110/95 79/111/103 81/115/105
f 72/112/96 73/114/97 81/115/105 80/113/104
f 74/198/99 75/199/98 83/200/106 82/201/107
f 76/67/100 74/68/99 82/69/107 84/70/108
f 75/199/98 77/202/101 85/203/109 83/200/106
f 77/79/101 78/80/102 86/81/110 85/82/109
f 79/73/103 76/67/100 84/70/108 87/74/111
f 78/80/102 80/83/104 88/84/112 86/81/110
f 81/210/105 79/211/103 87/212/111 89/213/113
f 80/216/104 81/210/105 89/213/113 88/217/112
f 82/201/107 83/200/106 91/204/114 90/205/115
f 84/70/108 82/69/107 90/71/115 92/72/116
f 83/200/106 85/203/109 93/206/117 91/204/114
f 85/82/109 86/81/110 94/85/118 93/86/117
f 87/74/111 84/70/108 92/72/116 95/77/119
f 86/81/110 88/84/112 96/87/120 94/85/118
f 89/213/113 87/212/111 95/214/119 97/215/121
f 88/217/112 89/213/113 97/215/121 96/220/120
f 90/205/115 91/204/114 99/207/122 98/208/123
f 92/72/116 90/71/115 98/75/123 100/76/124
f 91/204/114 93/206/117 101/209/125 99/207/122
f 93/86/117 94/85/118 102/88/126 101/89/125
f 95/77/119 92/72/116 100/76/124 103/78/127
f 94/85/118 96/87/120 104/90/128 102/88/126
f 97/215/121 95/214/119 103/218/127 105/219/129
f 96/220/120 97/215/121 105/219/129 104/221/128
f 98/116/123 99/117/122 107/118/130 106/119/131
f 100/124/124 98/116/123 106/119/131 108/125/132
f 99/117/122 101/120/125 109/121/133 107/118/130
f 101/120/125 102/126/126 110/127/134 109/121/133
f 103/131/127 100/124/124 108/125/132 111/130/135
f 102/126/126 104/128/128 112/122/136 110/127/134
f 105/129/129 103/131/127 111/130/135 113/123/137
f 104/128/128 105/129/129 113/123/137 112/122/136
f 106/119/131 107/118/130 112/122/136 113/123/137
f 111/130/135 108/125/132 106/119/131 113/123/137
f 109/121/133 110/127/134 112/122/136 107/118/130
f 115/16/52 114/15/51 34/18/58 36/19/62
f 116/20/55 115/16/52 36/19/62 39/23/68
f 117/180/57 116/179/55 39/182/68 41/183/72
f 118/184/56 117/180/57 41/183/72 40/187/70
f 119/49/54 118/51/56 40/54/70 38/52/66
f 120/50/53 119/49/54 38/52/66 37/53/64
f 121/147/50 120/149/53 37/152/64 35/150/59
f 114/148/51 121/147/50 35/150/59 34/151/58
f 123/6/28 122/5/27 18/9/34 20/10/38
f 124/11/31 123/6/28 20/10/38 23/14/44
f 125/170/33 124/169/31 23/173/44 25/174/48
f 126/175/32 125/170/33 25/174/48 24/178/46
f 127/40/30 126/42/32 24/45/46 22/43/42
f 128/41/29 127/40/30 22/43/42 21/44/40
f 129/138/26 128/140/29 21/143/40 19/141/35
f 122/139/27 129/138/26 19/141/35 18/142/34
